HIERARCHY
ROOT Hips
{
	OFFSET 0.00000 0.00000 0.00000
	CHANNELS 6 Xposition Yposition Zposition Zrotation Yrotation Xrotation 
	JOINT LHipJoint
	{
		OFFSET 0 0 0
		CHANNELS 3 Zrotation Yrotation Xrotation
		JOINT LeftHip
		{
			OFFSET 1.62964 -1.40469 0.78906
			CHANNELS 3 Zrotation Yrotation Xrotation
			JOINT LeftKnee
			{
				OFFSET 2.29640 -6.30932 0.00000
				CHANNELS 3 Zrotation Yrotation Xrotation
				JOINT LeftAnkle
				{
					OFFSET 2.29451 -6.30412 0.00000
					CHANNELS 3 Zrotation Yrotation Xrotation
					JOINT LeftToe
					{
						OFFSET 0.03611 -0.09921 1.56387
						CHANNELS 3 Zrotation Yrotation Xrotation
						End Site
						{
							OFFSET 0.00000 -0.00000 0.80291
						}
					}
				}
			}
		}
	}
	JOINT RHipJoint
	{
		OFFSET 0 0 0
		CHANNELS 3 Zrotation Yrotation Xrotation
		JOINT RightHip
		{
			OFFSET -1.73712 -1.40469 0.78906
			CHANNELS 3 Zrotation Yrotation Xrotation
			JOINT RightKnee
			{
				OFFSET -2.28137 -6.26801 0.00000
				CHANNELS 3 Zrotation Yrotation Xrotation
				JOINT RightAnkle
				{
					OFFSET -2.28681 -6.28298 0.00000
					CHANNELS 3 Zrotation Yrotation Xrotation
					JOINT RightToe
					{
						OFFSET -0.15927 -0.43759 1.61103
						CHANNELS 3 Zrotation Yrotation Xrotation
						End Site
						{
							OFFSET -0.00000 -0.00000 0.84630
						}
					}
				}
			}
		}
	}
	JOINT lowerback
	{
		OFFSET 0 0 0
		CHANNELS 3 Zrotation Yrotation Xrotation
		JOINT Chest
		{
			OFFSET -0.04227 2.04338 -0.00225
			CHANNELS 3 Zrotation Yrotation Xrotation
			JOINT Chest2
			{
				OFFSET -0.02148 2.04482 -0.04273
				CHANNELS 3 Zrotation Yrotation Xrotation
				JOINT lowerneck
				{
					OFFSET 0 0 0
					CHANNELS 3 Zrotation Yrotation Xrotation
					JOINT Neck
					{
						OFFSET 0.09180 1.44629 0.19359
						CHANNELS 3 Zrotation Yrotation Xrotation
						JOINT Head
						{
							OFFSET 0.00887 1.40645 0.14750
							CHANNELS 3 Zrotation Yrotation Xrotation
							End Site
							{
								OFFSET -0.00669 1.50671 0.03707
							}
						}
					}
				}
				JOINT LeftCollar
				{
					OFFSET 0 0 0
					CHANNELS 3 Zrotation Yrotation Xrotation
					JOINT LeftShoulder
					{
						OFFSET 2.17674 1.86763 -0.06520
CHANNELS 3 Zrotation Xrotation Yrotation
						JOINT LeftElbow
						{
OFFSET 0 -4.657760 0.000000
CHANNELS 3 Zrotation Xrotation Yrotation
							JOINT LeftWrist
							{
OFFSET 0 -3.555390 0.000000
CHANNELS 3 Zrotation Xrotation Yrotation
								JOINT lhand
								{
									OFFSET 0 0 0
CHANNELS 3 Zrotation Xrotation Yrotation
									JOINT LFingers
									{
OFFSET 0 -0.707260 0.000000
CHANNELS 3 Zrotation Xrotation Yrotation
										End Site
										{
OFFSET 0 -0.570220 0.000000
										}
									}
								}
								JOINT LThumb
								{
OFFSET 0 0.000000 0.000000
CHANNELS 3 Zrotation Xrotation Yrotation
									End Site
									{
OFFSET 0 -0.578920 0.578920
									}
								}
							}
						}
					}
				}
				JOINT RightCollar
				{
					OFFSET 0 0 0
					CHANNELS 3 Zrotation Yrotation Xrotation
					JOINT RightShoulder
					{
						OFFSET -2.80694 1.55459 -0.32496
CHANNELS 3 Zrotation Xrotation Yrotation
						JOINT RightElbow
						{
OFFSET 0 -4.719250 -0.000000
CHANNELS 3 Zrotation Xrotation Yrotation
							JOINT RightWrist
							{
OFFSET 0 -3.569900 0.000000
CHANNELS 3 Zrotation Xrotation Yrotation
								JOINT rhand
								{
									OFFSET 0 0 0
CHANNELS 3 Zrotation Xrotation Yrotation
									JOINT RFingers
									{
OFFSET 0 -0.507760 0.000000
CHANNELS 3 Zrotation Xrotation Yrotation
										End Site
										{
OFFSET 0 -0.409370 0.000000
										}
									}
								}
								JOINT RThumb
								{
OFFSET 0 0.000000 0.000000
CHANNELS 3 Zrotation Xrotation Yrotation
									End Site
									{
OFFSET 0 -0.415620 0.415620
									}
								}
							}
						}
					}
				}
			}
		}
	}
}
MOTION
Frames: 9
Frame Time: 0.008333333333333333
8.388700 16.285800 31.441800 178.590000 -0.215700 -152.687000 0.000000 0.000000 0.000000 -16.198100 -18.543300 -19.942000 0.236600 3.130600 8.642500 0.318300 1.793200 -11.466500 5.602400 -14.031700 -43.364400 0.000000 0.000000 0.000000 18.272300 14.020000 -20.764800 -0.122800 -2.258900 6.221700 -1.110800 -2.564900 -20.985700 -3.844100 11.950000 -35.555200 -6.376500 -1.191500 -30.191500 -0.635600 -0.190800 -2.155300 2.608700 -0.795800 13.408900 -1.916900 -3.018800 -8.106200 5.260300 -4.526200 9.182100 1.643600 -2.068900 4.238000 -0.000000 0.000000 0.000000 3.797800 2.599500 -8.040400 8.448400 -14.277100 1.060000 19.627300 12.002100 8.218200 0.000000 0.000000 0.000000 -7.125000 0.000000 0.000000 -5.232100 21.277200 -2.989100 -0.000000 0.000000 0.000000 1.964500 6.096000 3.927900 -15.934700 -25.432100 -3.617900 -14.563200 17.856500 53.510700 0.000000 0.000000 0.000000 7.125000 0.000000 -0.000000 67.894400 76.858100 -54.915200
8.395841 16.286122 31.444221 178.520773 -0.254865 -152.611848 0.000000 0.000000 0.000000 -16.207379 -18.582266 -20.020127 0.233460 3.109594 8.583994 0.312643 1.774580 -11.361620 5.592402 -14.021247 -43.322810 0.000000 0.000000 0.000000 18.183865 14.147214 -20.813014 -0.123123 -2.261804 6.229818 -1.105571 -2.729782 -21.019492 -3.886563 12.007865 -35.759850 -6.462881 -1.194146 -30.252257 -0.686480 -0.152231 -2.130202 2.614004 -0.784047 13.459470 -2.004574 -3.113516 -7.465725 5.676861 -4.633196 7.981521 1.944404 -2.142166 4.075353 0.000000 0.000000 0.000000 3.848344 2.451211 -7.266519 8.356412 -14.128925 1.037440 19.351735 12.510415 8.863207 0.000000 0.000000 0.000000 -7.125000 0.000000 0.000000 -5.431326 20.614362 -3.185653 0.000000 0.000000 0.000000 1.964610 6.024839 3.765785 -15.850700 -25.317809 -3.581886 -16.062821 19.136869 53.281320 0.000000 0.000000 0.000000 7.125000 0.000000 0.000000 66.434382 77.386439 -54.128697
8.399837 16.285163 31.446897 178.563154 -0.228982 -152.581900 0.000000 0.000000 0.000000 -16.158839 -18.379282 -20.169776 0.235488 3.123223 8.621937 0.311582 1.640786 -11.272740 5.687009 -14.118011 -43.712149 0.000000 0.000000 0.000000 18.159202 14.399715 -20.786615 -0.124403 -2.273780 6.262984 -1.111788 -2.717898 -21.069012 -3.765455 11.841566 -35.173708 -6.399519 -1.115024 -30.245954 -0.709612 -0.071058 -2.148163 2.586440 -0.743393 13.429676 -1.997482 -3.129892 -7.553331 5.604034 -4.663257 8.139537 1.963396 -2.161475 4.264540 0.000000 0.000000 0.000000 3.949139 2.628388 -7.904574 8.467362 -14.307565 1.064729 19.472857 11.849134 8.790041 0.000000 0.000000 0.000000 -7.125000 0.000000 0.000000 -5.343952 20.683979 -3.125593 0.000000 0.000000 0.000000 1.915266 6.241292 3.932382 -15.940150 -25.439410 -3.620192 -15.784341 18.697182 53.314561 0.000000 0.000000 0.000000 7.125000 0.000000 0.000000 66.667161 77.285435 -54.236771
8.407761 16.281924 31.446013 178.790062 -0.331419 -152.636800 0.000000 0.000000 0.000000 -15.842909 -18.173997 -20.223466 0.237483 3.136431 8.658880 0.313962 1.515305 -11.247204 5.679857 -14.110498 -43.682576 0.000000 0.000000 0.000000 18.471607 14.587335 -20.617581 -0.120988 -2.242423 6.176089 -1.091989 -3.002812 -21.033957 -3.804983 11.896059 -35.365572 -6.201654 -1.050291 -30.205230 -0.654398 -0.057431 -2.148003 2.546298 -0.724161 13.414604 -2.353200 -3.005239 -7.216781 6.174283 -4.514168 7.965602 2.179181 -2.081191 4.051554 0.000000 0.000000 0.000000 4.054931 2.777813 -8.637760 8.584508 -14.495872 1.093808 19.787897 10.927289 8.817255 0.000000 0.000000 0.000000 -7.125000 0.000000 0.000000 -5.117421 20.635805 -2.997353 0.000000 0.000000 0.000000 1.934579 6.397224 3.951524 -15.978722 -25.491760 -3.636831 -15.647022 18.638102 53.369756 0.000000 0.000000 0.000000 7.125000 0.000000 0.000000 66.950721 77.245813 -54.456440
8.410293 16.282793 31.444698 178.783501 -0.410821 -152.657033 0.000000 0.000000 0.000000 -15.837897 -18.269403 -20.176200 0.238285 3.141501 8.672825 0.304145 1.739669 -11.202048 5.959677 -14.389096 -44.819535 0.000000 0.000000 0.000000 18.538123 14.424729 -20.614836 -0.118607 -2.220163 6.114573 -1.086507 -3.090839 -21.029483 -3.944603 12.086330 -36.038220 -6.144021 -0.994450 -30.119414 -0.710010 -0.011008 -2.201223 2.473805 -0.697537 13.311910 -2.501647 -2.965918 -7.593391 6.604812 -4.537097 8.681573 2.158201 -2.052922 4.045288 0.000000 0.000000 0.000000 4.171122 2.934246 -9.034460 8.696331 -14.675226 1.121931 19.910373 10.498105 8.809494 0.000000 0.000000 0.000000 -7.125000 0.000000 0.000000 -5.029170 20.636431 -2.945261 0.000000 0.000000 0.000000 2.006249 6.653751 3.895195 -16.050104 -25.588627 -3.667586 -15.227131 18.223668 53.482344 0.000000 0.000000 0.000000 7.125000 0.000000 0.000000 67.566746 77.109968 -54.881223
8.416310 16.286357 31.447540 178.655022 -0.504006 -152.553845 0.000000 0.000000 0.000000 -15.895896 -18.228716 -20.464122 0.249102 3.211713 8.868680 0.311758 1.353308 -11.128578 5.569468 -13.996926 -43.226684 0.000000 0.000000 0.000000 18.398978 14.332295 -20.747817 -0.118174 -2.216561 6.104588 -1.102440 -2.926338 -21.088336 -3.770748 11.848634 -35.199094 -6.318431 -1.008646 -30.146062 -0.718956 0.020227 -2.246384 2.568957 -0.694996 13.265542 -2.152992 -3.086755 -7.718394 6.050061 -4.708976 9.161293 1.916989 -2.144370 4.198538 0.000000 0.000000 0.000000 4.238551 2.905934 -9.489406 8.745372 -14.753779 1.134429 20.033244 10.175265 8.678716 0.000000 0.000000 0.000000 -7.125000 0.000000 0.000000 -4.940057 20.766855 -2.878049 0.000000 0.000000 0.000000 1.945572 6.865244 4.028028 -16.195130 -25.784482 -3.730425 -15.893773 18.454193 54.079571 0.000000 0.000000 0.000000 7.125000 0.000000 0.000000 70.025517 77.505547 -57.595275
8.422462 16.287903 31.451272 178.530140 -0.498076 -152.447314 0.000000 0.000000 0.000000 -16.006544 -18.142723 -20.712823 0.258019 3.268148 9.026190 0.315213 1.151675 -11.087533 5.680061 -14.110897 -43.683602 0.000000 0.000000 0.000000 18.178738 14.540870 -20.828840 -0.120136 -2.234577 6.154311 -1.119108 -2.887245 -21.216241 -3.540158 11.521602 -34.060399 -6.430576 -0.975440 -30.182809 -0.795515 0.101646 -2.281862 2.576400 -0.665889 13.231063 -1.788814 -3.215704 -8.052828 5.501433 -4.893381 9.693871 1.670041 -2.237094 4.402576 0.000000 0.000000 0.000000 4.379225 2.930159 -10.067556 8.892222 -14.988499 1.172158 20.067178 9.660168 8.515191 0.000000 0.000000 0.000000 -7.125000 0.000000 0.000000 -4.914793 20.937661 -2.844315 0.000000 0.000000 0.000000 1.974081 6.900946 3.877454 -16.200207 -25.791322 -3.732644 -15.837020 18.117879 53.664958 0.000000 0.000000 0.000000 7.125000 0.000000 0.000000 68.191788 77.392136 -55.762791
8.428736 16.286747 31.451994 178.411002 -0.531953 -152.394943 0.000000 0.000000 0.000000 -16.139404 -18.045613 -20.727595 0.250042 3.217515 8.885010 0.306659 1.063909 -10.901483 5.768838 -14.200462 -44.046666 0.000000 0.000000 0.000000 18.030602 14.641785 -20.825653 -0.119476 -2.228363 6.137131 -1.112013 -2.970463 -21.194856 -3.532553 11.510994 -34.023242 -6.566430 -1.025535 -30.219882 -0.823180 0.081070 -2.297547 2.610397 -0.684512 13.228117 -1.759012 -3.198257 -8.411157 5.493777 -4.912076 10.219979 1.652630 -2.235727 4.623548 0.000000 0.000000 0.000000 4.409089 2.961492 -10.301833 9.038535 -15.221724 1.210262 20.236890 9.258151 8.373548 0.000000 0.000000 0.000000 -7.125000 0.000000 0.000000 -4.791501 21.077352 -2.757268 0.000000 0.000000 0.000000 1.988654 6.784179 3.559115 -16.097559 -25.652812 -3.688129 -15.808577 18.377522 53.476770 0.000000 0.000000 0.000000 7.125000 0.000000 0.000000 67.367707 77.336452 -54.937988
8.433455 16.287588 31.453753 178.436783 -0.566587 -152.398217 0.000000 0.000000 0.000000 -16.064840 -18.139265 -20.663012 0.245747 3.190238 8.808916 0.302998 1.163524 -10.887519 5.749341 -14.180943 -43.967027 0.000000 0.000000 0.000000 18.067833 14.707694 -20.792800 -0.117805 -2.213048 6.094835 -1.135796 -3.016048 -21.426320 -3.428880 11.358811 -33.499882 -6.571652 -0.991469 -30.196917 -0.810008 0.122774 -2.312296 2.643890 -0.665239 13.197341 -1.733850 -3.287183 -7.842210 5.663101 -5.022578 9.623567 1.705706 -2.298772 4.353771 0.000000 0.000000 0.000000 4.375470 2.951936 -10.579959 9.220884 -15.511732 1.258569 20.394511 8.933599 8.216578 0.000000 0.000000 0.000000 -7.125000 0.000000 0.000000 -4.676737 21.234159 -2.674118 0.000000 0.000000 0.000000 1.936362 6.824698 3.568811 -16.128074 -25.694089 -3.701371 -15.809876 18.297232 53.696562 0.000000 0.000000 0.000000 7.125000 0.000000 0.000000 68.335070 77.389902 -55.892330
